<?xml version="1.0" standalone="no"?>
<!DOCTYPE svg PUBLIC "-//W3C//DTD SVG 20010904//EN"
 "http://www.w3.org/TR/2001/REC-SVG-20010904/DTD/svg10.dtd">
<svg version="1.0" xmlns="http://www.w3.org/2000/svg"
 width="750.000000pt" height="750.000000pt" viewBox="0 0 750.000000 750.000000"
 preserveAspectRatio="xMidYMid meet">
<metadata>
Created by potrace 1.14, written by Peter Selinger 2001-2017
</metadata>
<g transform="translate(0.000000,750.000000) scale(0.100000,-0.100000)"
fill="#000000" stroke="none">
<path d="M0 3750 l0 -3750 1815 0 c1445 0 1815 3 1815 13 0 34 -38 229 -46
236 -5 5 -70 13 -144 20 -442 37 -853 154 -1260 358 -740 371 -1330 996 -1653
1754 -174 409 -263 808 -272 1224 l-4 200 14 -148 c30 -316 96 -603 200 -873
372 -965 1201 -1696 2198 -1938 231 -56 403 -80 660 -92 134 -6 147 -6 147 10
0 9 -27 123 -59 254 -32 130 -85 343 -116 472 -32 129 -84 312 -116 405 -71
210 -156 436 -168 448 -19 19 -361 -71 -751 -198 -239 -78 -283 -88 -390 -88
-107 -1 -159 16 -222 71 -83 74 -117 235 -84 403 68 335 202 636 486 1083 l44
68 -24 18 c-19 14 -24 26 -22 53 2 30 -1 36 -24 41 -35 9 -74 53 -74 84 0 26
19 52 143 201 110 132 164 246 213 454 l17 76 -31 69 c-79 171 -113 551 -82
922 7 92 7 117 -4 130 -49 56 -63 157 -31 221 51 100 87 125 307 208 84 32
204 83 265 114 62 32 119 57 126 57 23 0 113 53 152 89 46 42 125 163 125 191
0 28 -43 112 -79 153 -43 49 -46 74 -15 132 14 28 33 64 42 80 8 17 29 42 46
57 17 14 28 29 25 32 -3 3 -45 1 -95 -4 -545 -61 -1059 -259 -1507 -581 -50
-37 -94 -65 -97 -62 -8 7 219 183 350 270 395 263 895 458 1351 529 63 10 116
19 118 20 2 2 -6 15 -18 30 -19 24 -29 64 -15 64 3 0 14 -5 25 -11 19 -10 20
-9 9 11 -18 33 -8 45 38 42 46 -4 69 19 50 52 -5 9 -7 20 -4 24 4 3 47 8 97
10 75 4 91 8 100 23 9 19 -33 19 -1781 19 l-1790 0 0 -3750z"/>
<path d="M3695 7481 c22 -10 53 -33 69 -50 36 -37 46 -39 46 -7 0 27 18 45 24
24 3 -7 7 -43 11 -79 l6 -66 44 5 c67 7 131 -6 165 -34 24 -21 49 -28 142 -40
633 -81 1229 -334 1737 -737 141 -112 399 -365 511 -501 450 -546 720 -1198
791 -1908 15 -160 6 -645 -15 -798 -108 -756 -432 -1423 -951 -1959 -261 -269
-484 -442 -804 -625 -389 -222 -844 -372 -1276 -422 -77 -8 -155 -18 -173 -20
l-32 -5 23 -32 c49 -66 107 -174 107 -200 l0 -27 1690 0 1690 0 0 3750 0 3750
-1922 0 c-1880 0 -1922 -1 -1883 -19z"/>
<path d="M4316 6915 c16 -40 18 -124 3 -178 -21 -75 -111 -146 -186 -147 -30
0 -33 -3 -33 -29 0 -16 -4 -31 -9 -33 -5 -1 -30 -154 -55 -338 -62 -453 -64
-474 -59 -483 2 -4 32 -21 66 -38 57 -29 60 -32 42 -45 -10 -8 -37 -14 -59
-14 -55 0 -62 -7 -69 -65 l-6 -50 107 -137 c59 -75 163 -197 231 -270 141
-151 289 -327 310 -366 8 -15 66 -99 130 -187 132 -183 321 -382 613 -647 97
-89 180 -168 183 -176 13 -35 -15 -32 -75 7 -94 61 -99 57 -40 -35 22 -35 40
-68 40 -74 0 -26 -33 -4 -78 53 -81 102 -155 174 -187 181 -16 4 -40 10 -52
13 -33 8 -38 -17 -16 -83 18 -56 20 -58 93 -97 239 -126 412 -285 491 -452 16
-33 29 -74 29 -92 0 -27 8 -38 53 -72 83 -61 174 -177 163 -207 -6 -16 -8 -16
-24 0 -10 9 -26 16 -35 16 -9 0 -45 22 -80 49 -103 79 -216 130 -343 156
l-112 23 -113 114 c-182 181 -355 273 -659 350 -123 31 -171 48 -232 83 -43
25 -82 45 -88 45 -19 0 -10 -27 38 -107 91 -152 222 -328 363 -488 126 -143
145 -161 184 -171 80 -20 162 -94 105 -94 -11 0 -20 -3 -20 -7 0 -5 29 -34 64
-65 70 -63 119 -140 131 -203 4 -21 21 -59 38 -83 25 -35 32 -55 34 -105 2
-34 -1 -69 -7 -77 -9 -13 -13 -11 -31 10 -98 119 -183 209 -229 240 -103 70
-150 90 -210 90 l-55 0 -48 60 c-30 37 -57 60 -69 60 -11 0 -55 -9 -98 -20
-43 -11 -134 -29 -202 -41 -162 -27 -364 -76 -570 -138 -92 -28 -174 -51 -182
-51 -25 0 -28 -19 -8 -48 87 -123 189 -447 217 -694 9 -73 18 -218 21 -323 2
-104 14 -296 26 -427 l22 -236 35 5 c303 41 632 131 856 233 114 52 233 111
280 138 28 16 68 39 90 52 22 12 47 28 56 36 8 8 19 14 23 14 6 0 33 18 173
116 213 149 527 468 696 706 154 219 246 381 343 609 398 935 321 2007 -205
2874 -387 638 -987 1119 -1691 1356 -63 22 -117 39 -122 39 -4 0 0 -16 8 -35z"/>
<path d="M3366 6388 c-11 -42 -26 -110 -26 -118 0 -6 8 -10 19 -10 45 0 161
-72 235 -147 87 -87 71 -96 132 77 20 58 43 117 50 133 17 32 15 32 -56 7 -68
-24 -166 -26 -220 -4 -31 13 -43 14 -54 5 -17 -14 -29 0 -20 22 3 9 -4 21 -18
31 -27 19 -38 20 -42 4z"/>
<path d="M3174 5514 c-49 -53 -117 -118 -151 -145 -91 -71 -116 -121 -121
-236 -3 -65 -1 -93 7 -93 6 0 30 12 53 27 54 36 107 37 143 3 34 -31 55 -72
55 -104 0 -13 14 -47 31 -74 40 -65 48 -123 23 -169 -17 -32 -17 -36 -2 -44
39 -22 237 -182 276 -223 24 -25 48 -46 53 -46 4 0 0 19 -10 43 -64 150 -74
461 -28 903 l13 122 -49 52 c-48 52 -50 53 -114 56 -36 2 -71 8 -78 14 -10 8
-33 -12 -101 -86z"/>
<path d="M3706 5255 c-15 -41 -2 -415 15 -398 13 13 16 405 3 410 -6 2 -14 -3
-18 -12z"/>
<path d="M3945 5039 c-4 -5 0 -18 9 -28 13 -15 14 -20 4 -29 -18 -14 5 -526
27 -626 31 -134 46 -151 235 -261 145 -85 211 -118 280 -140 71 -23 497 -183
521 -196 16 -8 19 -6 19 11 0 39 -83 234 -110 260 -91 88 -169 157 -270 241
-63 52 -199 181 -301 285 -287 292 -326 339 -354 425 -17 49 -47 79 -60 58z"/>
<path d="M3491 4297 c-101 -104 -98 -92 -57 -208 20 -55 36 -108 36 -118 0
-12 -23 -27 -76 -51 l-76 -33 8 -36 c14 -68 11 -84 -16 -91 -30 -7 -38 -41
-17 -74 8 -12 13 -33 10 -47 -4 -21 66 -706 83 -813 l6 -39 117 6 c64 3 129
10 144 16 16 6 54 35 85 65 31 29 75 63 98 74 41 21 72 53 129 132 17 23 49
57 73 76 23 20 42 40 42 45 0 6 -11 25 -25 44 -33 42 -84 170 -125 310 -47
162 -100 394 -100 440 0 38 -5 45 -75 108 -51 46 -92 96 -127 153 -28 46 -57
89 -63 94 -9 7 -30 -8 -74 -53z"/>
<path d="M2584 3209 c-48 -62 -126 -153 -173 -203 -81 -86 -281 -370 -269
-382 3 -2 21 4 39 15 99 57 394 120 564 121 39 0 76 5 82 11 8 8 1 37 -23 105
-47 133 -104 330 -111 387 -3 26 -9 50 -13 52 -5 3 -47 -45 -96 -106z"/>
</g>
</svg>
